<svg width="24px" height="24px" viewBox="0 0 24 24" version="1.1" xmlns="http://www.w3.org/2000/svg" xmlns:xlink="http://www.w3.org/1999/xlink">
    <!-- Generator: Sketch 58 (84663) - https://sketch.com -->
    <title>feather-icon/circle-up_down</title>
    <desc>Created with Sketch.</desc>
    <g id="feather-icon/circle-up_down" stroke="none" stroke-width="1" fill="none" fill-rule="evenodd">
        <path d="M5.15685423,12.1568543 C5.70913898,12.1568543 6.15685423,12.6045695 6.15685423,13.1568543 L6.15685423,13.1568543 L6.15685423,18.1568543 L11.1568542,18.1568543 C11.709139,18.1568543 12.1568542,18.6045696 12.1568542,19.1568543 C12.1568542,19.7091391 11.709139,20.1568543 11.1568542,20.1568543 L11.1568542,20.1568543 L5.15685423,20.1568543 C4.60456948,20.1568543 4.15685423,19.7091391 4.15685423,19.1568543 L4.15685423,19.1568543 L4.15685423,13.1568543 C4.15685423,12.6045695 4.60456948,12.1568543 5.15685423,12.1568543 Z M19.1568542,4.15685427 C19.709139,4.15685427 20.1568542,4.60456953 20.1568542,5.15685427 L20.1568542,5.15685427 L20.1568542,11.1568543 C20.1568542,11.7091391 19.709139,12.1568543 19.1568542,12.1568543 C18.6045695,12.1568543 18.1568542,11.7091391 18.1568542,11.1568543 L18.1568542,11.1568543 L18.1568542,6.15685427 L13.1568542,6.15685427 C12.6045695,6.15685427 12.1568542,5.70913903 12.1568542,5.15685427 C12.1568542,4.60456953 12.6045695,4.15685427 13.1568542,4.15685427 L13.1568542,4.15685427 Z" id="Shape" fill="#445165" transform="translate(12.156854, 12.156854) rotate(-45.000000) translate(-12.156854, -12.156854) "></path>
    </g>
</svg>