<?xml version="1.0" encoding="UTF-8"?>
<svg width="44px" height="44px" viewBox="0 0 44 44" version="1.1" xmlns="http://www.w3.org/2000/svg" xmlns:xlink="http://www.w3.org/1999/xlink">
    <!-- Generator: Sketch 58 (84663) - https://sketch.com -->
    <title>feather-icon/desktop</title>
    <desc>Created with Sketch.</desc>
    <g id="feather-icon/desktop" stroke="none" stroke-width="1" fill="none" fill-rule="evenodd">
        <path d="M42.6996407,7 L1.3019599,7 C0.584120387,7 0,7.56690958 0,8.26407616 L0,30.5426894 C0,30.5426894 0.000800713348,30.5434671 0.000800713348,30.5442447 L0.000800713348,31.6574561 C0.000800713348,32.0692237 0.343906383,32.4024484 0.767083387,32.4024484 L17.7101778,32.4024484 C17.6413165,33.867548 17.3082197,36.8078568 15.7420244,37.4525318 C15.7420244,37.4525318 15.134283,38 16.8349981,38 L19.7459915,38 L23.7579657,38 L26.6697598,38 C28.370475,38 27.7627336,37.4525318 27.7627336,37.4525318 C26.1965382,36.8078568 25.8626408,33.8671592 25.7945801,32.4024484 L43.247729,32.4024484 C43.6725074,32.4024484 43.9967963,32.0692237 43.9967963,31.6574561 L43.9967963,30.5776838 C43.9967963,30.5656302 44,30.5543542 44,30.5426894 L44,8.26407616 C44.0007999,7.56690958 43.4174802,7 42.6996407,7 Z M22,32.5 C22,32.2235948 22.2239036,32 22.5,32 C22.7764052,32 23,32.2239036 23,32.5 C23,32.7760964 22.7760964,33 22.5,33 C22.2239036,33 22,32.7764052 22,32.5 Z M42,29 L2,29 L2,9.15935566 C2,9.0715545 2.07930214,9 2.17755943,9 L41.8216669,9 C41.9199242,9 42,9.0715545 42,9.15935566 L42,29 Z" id="Shape" fill="#97A5BB"></path>
    </g>
</svg>