<?xml version="1.0" encoding="UTF-8"?>
<svg width="24px" height="24px" viewBox="0 0 24 24" version="1.1" xmlns="http://www.w3.org/2000/svg" xmlns:xlink="http://www.w3.org/1999/xlink">
    <!-- Generator: Sketch 58 (84663) - https://sketch.com -->
    <title>icon/Ios</title>
    <desc>Created with Sketch.</desc>
    <g id="icon/Ios" stroke="none" stroke-width="1" fill="none" fill-rule="evenodd">
        <path d="M19.4645781,20.190244 C19.0134907,20.8898009 18.523379,21.5237651 17.9942109,22.0921547 C17.4650536,22.6605445 16.8274681,22.9534796 16.0814438,22.9709685 C15.3354196,22.9884574 14.7498843,22.844176 14.3248188,22.5381199 C13.8997565,22.2320639 13.2708467,22.0790381 12.4380714,22.0790381 C11.5879468,22.0790381 10.9460261,22.2233195 10.5122891,22.5118866 C10.0785521,22.8004539 9.50602778,22.9622239 8.79469902,22.9972017 C8.06602092,23.0321796 7.41976182,22.7392446 6.85590363,22.118388 C6.29204543,21.4975319 5.77590648,20.8460789 5.30746971,20.1640109 C4.83903412,19.464454 4.40964076,18.6468597 4.01927746,17.7112021 C3.62891406,16.7755456 3.34698923,15.7961811 3.17349432,14.7730785 C3,13.749977 2.95662647,12.7268906 3.04337387,11.7037933 C3.13012137,10.6806843 3.41638354,9.74066742 3.90216902,8.88371045 C4.38795449,8.02675348 5.0385505,7.34906838 5.85397643,6.85063368 C6.66940129,6.35220972 7.54553716,6.0942512 8.48240962,6.07675811 C9.19373838,6.05926503 9.87035777,6.21667055 10.5122891,6.54895319 C11.1542194,6.88124658 11.7007208,7.0473879 12.1518071,7.0473879 C12.5855441,7.0473879 13.1840925,6.8550177 13.9474693,6.4702558 C14.7108493,6.08550466 15.5175899,5.93684568 16.3677145,6.02428961 C16.7320445,6.04178269 17.3349334,6.17732186 18.1763813,6.43090711 C19.0178398,6.68449236 19.7595149,7.29222661 20.4014495,8.25412059 C20.3667423,8.28909601 19.9590389,8.65198081 19.1783074,9.34279646 C18.3975866,10.0336121 18.015903,11.0873018 18.0332566,12.5039032 C18.0505995,14.2003283 18.5450497,15.3764406 19.5166283,16.0322744 C20.4881963,16.6881092 20.9826464,17.0247662 21,17.042255 C20.9826464,17.0772326 20.8568646,17.4182617 20.6226548,18.0653511 C20.3884343,18.7124416 20.0024123,19.4207321 19.4645781,20.190244 Z M13.0749323,2.62908939 C13.4310614,2.17091126 13.8800872,1.78909441 14.422024,1.48363885 C14.9639551,1.17818328 15.4826549,1.01697381 15.9781425,1 C16.0400736,1.62788494 15.9703987,2.24727255 15.7691081,2.85818367 C15.5678175,3.4690948 15.2968614,4.00363422 14.9562114,4.46182278 C14.6155708,4.92000092 14.1820259,5.30181777 13.6555747,5.60727333 C13.1291235,5.9127289 12.5871962,6.04000118 12.0297766,5.98909018 C11.9523578,5.37817905 12.0259047,4.76727835 12.2504209,4.15636722 C12.4749371,3.54545609 12.7497717,3.03636696 13.0749323,2.62908939 Z" id="Fill-1" fill="#97A5BB"></path>
    </g>
</svg>