<?xml version="1.0" encoding="UTF-8"?>
<svg width="24px" height="24px" viewBox="0 0 24 24" version="1.1" xmlns="http://www.w3.org/2000/svg" xmlns:xlink="http://www.w3.org/1999/xlink">
    <!-- Generator: Sketch 58 (84663) - https://sketch.com -->
    <title>feather-icon/minus copy</title>
    <desc>Created with Sketch.</desc>
    <g id="feather-icon/minus-copy" stroke="none" stroke-width="1" fill="none" fill-rule="evenodd">
        <path d="M19,13 C19.5522848,13 20,13.4477153 20,14 C20,14.5522848 19.5522848,15 19,15 L19,15 L5,15 C4.44771525,15 4,14.5522848 4,14 C4,13.4477153 4.44771525,13 5,13 L5,13 Z M19,8 C19.5522848,8 20,8.44771525 20,9 C20,9.55228476 19.5522848,10 19,10 L19,10 L5,10 C4.44771525,10 4,9.55228476 4,9 C4,8.44771525 4.44771525,8 5,8 L5,8 Z" id="Combined-Shape" fill="#97A5BB"></path>
    </g>
</svg>