<?xml version="1.0" encoding="UTF-8"?>
<svg width="44px" height="44px" viewBox="0 0 44 44" version="1.1" xmlns="http://www.w3.org/2000/svg" xmlns:xlink="http://www.w3.org/1999/xlink">
    <!-- Generator: Sketch 58 (84663) - https://sketch.com -->
    <title>feather-icon/mobile</title>
    <desc>Created with Sketch.</desc>
    <g id="feather-icon/mobile" stroke="none" stroke-width="1" fill="none" fill-rule="evenodd">
        <path d="M27.8439316,9 L16.1560684,9 C15.517882,9 15,9.5037366 15,10.1248352 L15,33.8754443 C15,34.4965429 15.517882,35 16.1560684,35 L27.8439316,35 C28.4824045,35 29,34.4962641 29,33.8754443 L29,10.1248352 C29,9.5037366 28.4824045,9 27.8439316,9 Z M21.0129307,10.7563783 L22.9876422,10.7563783 C23.0543825,10.7563783 23.1079466,10.810534 23.1079466,10.8773643 C23.1079466,10.9439066 23.0540961,10.9983503 22.9876422,10.9983503 L21.0129307,10.9983503 C20.9461904,10.9983503 20.8926251,10.9439066 20.8926251,10.8773643 C20.8923398,10.810534 20.9459039,10.7563783 21.0129307,10.7563783 Z M22,33.9505913 C21.5835175,33.9505913 21.2455193,33.6103902 21.2455193,33.1918363 C21.2455193,32.7727063 21.5835175,32.4327932 22,32.4327932 C22.416769,32.4327932 22.7544809,32.7727063 22.7544809,33.1918363 C22.7547672,33.6103902 22.416769,33.9505913 22,33.9505913 Z M27.8883297,31.6417753 L16.1116703,31.6417753 L16.1116703,12.5751081 L27.8880432,12.5751081 L27.8883297,31.6417753 L27.8883297,31.6417753 Z" id="Shape" fill="#97A5BB"></path>
    </g>
</svg>