<?xml version="1.0" encoding="UTF-8"?>
<svg width="44px" height="44px" viewBox="0 0 44 44" version="1.1" xmlns="http://www.w3.org/2000/svg" xmlns:xlink="http://www.w3.org/1999/xlink">
    <!-- Generator: Sketch 58 (84663) - https://sketch.com -->
    <title>feather-icon/notebook</title>
    <desc>Created with Sketch.</desc>
    <g id="feather-icon/notebook" stroke="none" stroke-width="1" fill="none" fill-rule="evenodd">
        <path d="M43.9439281,33.5795537 L41.3283476,33.5795537 C41.5547549,33.2626199 41.6913668,32.8762369 41.6913668,32.4572396 L41.6913668,9.94112385 C41.6913668,8.87060882 40.8198904,8 39.7492523,8 L4.22517182,8 C3.15491742,8 2.28382474,8.87099251 2.28382474,9.94112385 L2.28382474,32.4572396 C2.28382474,32.8846782 2.42734398,33.2775841 2.66257737,33.5991223 L0.0220537047,33.5991223 C0.0220537047,33.5991223 -0.0965223472,33.7192195 0.216226787,34.031549 C1.10305286,34.9186568 3.09505378,34.9953962 3.09505378,34.9953962 L3.09505378,34.993094 C3.09505378,34.993094 40.4077523,35.0019191 40.4491963,34.9996169 C42.529074,34.9996169 43.2006212,34.376109 43.7505225,34.0123641 C44.1576719,33.603343 43.9439281,33.5795537 43.9439281,33.5795537 Z M24,33.1672999 L19,33.1672999 L19,32.8327001 L23.9992324,32.8327001 L24,33.1672999 L24,33.1672999 Z M38.999633,31 L4,31 L4,10 L39,10 L39,31 L38.999633,31 Z" id="Shape" fill="#97A5BB"></path>
    </g>
</svg>