<?xml version="1.0" encoding="UTF-8"?>
<svg width="24px" height="24px" viewBox="0 0 24 24" version="1.1" xmlns="http://www.w3.org/2000/svg" xmlns:xlink="http://www.w3.org/1999/xlink">
    <!-- Generator: Sketch 58 (84663) - https://sketch.com -->
    <title>feather-icon/square-check</title>
    <desc>Created with Sketch.</desc>
    <defs>
        <path d="M20,1 C21.6568542,1 23,2.34314575 23,4 L23,20 C23,21.6568542 21.6568542,23 20,23 L4,23 C2.34314575,23 1,21.6568542 1,20 L1,4 C1,2.40231912 2.24891996,1.09633912 3.82372721,1.00509269 L4,1 L20,1 Z M14.6371875,9.05987738 L10.75,12.8292713 L9.3628125,11.4841198 C8.96632706,11.0996491 8.333237,11.1093889 7.94876627,11.5058744 C7.56429554,11.9023598 7.57403539,12.5354499 7.97052083,12.9199206 L10.0538542,14.9401226 C10.4417411,15.3162554 11.0582589,15.3162554 11.4461458,14.9401226 L16.0294792,10.4956782 C16.4259646,10.1112074 16.4357045,9.47811738 16.0512337,9.08163194 C15.666763,8.6851465 15.0336729,8.67540666 14.6371875,9.05987738 Z" id="path-1"></path>
    </defs>
    <g id="feather-icon/square-check" stroke="none" stroke-width="1" fill="none" fill-rule="evenodd">
        <mask id="mask-2" fill="white">
            <use xlink:href="#path-1"></use>
        </mask>
        <use id="Mask" fill="#97A5BB" xlink:href="#path-1"></use>
    </g>
</svg>