<?xml version="1.0" encoding="UTF-8"?>
<svg width="44px" height="44px" viewBox="0 0 44 44" version="1.1" xmlns="http://www.w3.org/2000/svg" xmlns:xlink="http://www.w3.org/1999/xlink">
    <!-- Generator: Sketch 58 (84663) - https://sketch.com -->
    <title>feather-icon/tablet</title>
    <desc>Created with Sketch.</desc>
    <g id="feather-icon/tablet" stroke="none" stroke-width="1" fill="none" fill-rule="evenodd">
        <path d="M32.0952432,6 L11.9047568,6 C10.8545946,6 10,6.86488261 10,7.92768712 L10,36.0723129 C10,37.1351174 10.8545946,38 11.9047568,38 L32.0952432,38 C33.1454054,38 34,37.1351174 34,36.0723129 L34,7.92768712 C34,6.86455438 33.1454054,6 32.0952432,6 Z M22,7.1084283 C22.1576216,7.1084283 22.2857297,7.23807863 22.2857297,7.39759778 C22.2857297,7.55711692 22.1576216,7.68643903 22,7.68643903 C21.8423784,7.68643903 21.7142703,7.55678869 21.7142703,7.39726955 C21.7142703,7.2377504 21.8423784,7.1084283 22,7.1084283 Z M22,36.9391649 C21.6844324,36.9391649 21.4285405,36.6805207 21.4285405,36.3608259 C21.4285405,36.0411312 21.6844324,35.7821587 22,35.7821587 C22.3155676,35.7821587 22.5714595,36.0411312 22.5714595,36.3608259 C22.5714595,36.6805207 22.3155676,36.9391649 22,36.9391649 Z M32.4763243,35.1558984 L11.5236757,35.1558984 L11.5236757,8.84311694 L32.4763243,8.84311694 L32.4763243,35.1558984 Z" id="Shape" fill="#97A5BB"></path>
    </g>
</svg>