<?xml version="1.0" encoding="UTF-8"?>
<svg width="24px" height="24px" viewBox="0 0 24 24" version="1.1" xmlns="http://www.w3.org/2000/svg" xmlns:xlink="http://www.w3.org/1999/xlink">
    <!-- Generator: Sketch 58 (84663) - https://sketch.com -->
    <title>feather-icon/x-circle-2</title>
    <desc>Created with Sketch.</desc>
    <g id="feather-icon/x-circle-2" stroke="none" stroke-width="1" fill="none" fill-rule="evenodd">
        <path d="M12,0.999999954 C18.0751323,0.999999954 23,5.92486773 23,12 C23,18.0751323 18.0751323,23 12,23 C5.92486773,23 0.999999954,18.0751323 0.999999954,12 C0.999999954,5.92486773 5.92486773,0.999999954 12,0.999999954 Z M9.61289943,8.2097046 C9.22060822,7.9046797 8.65337717,7.93240924 8.2928932,8.2928932 L8.2928932,8.2928932 L8.2097046,8.38710054 C7.9046797,8.77939175 7.93240924,9.34662281 8.2928932,9.70710677 L8.2928932,9.70710677 L10.585,12 L8.2928932,14.2928932 L8.2097046,14.3871006 C7.9046797,14.7793918 7.93240924,15.3466228 8.2928932,15.7071068 L8.2928932,15.7071068 L8.38710054,15.7902954 C8.77939175,16.0953203 9.34662281,16.0675908 9.70710677,15.7071068 L9.70710677,15.7071068 L12,13.415 L14.2928932,15.7071068 L14.3871006,15.7902954 C14.7793918,16.0953203 15.3466228,16.0675908 15.7071068,15.7071068 L15.7071068,15.7071068 L15.7902954,15.6128995 C16.0953203,15.2206082 16.0675908,14.6533772 15.7071068,14.2928932 L15.7071068,14.2928932 L13.415,12 L15.7071068,9.70710677 L15.7902954,9.61289943 C16.0953203,9.22060822 16.0675908,8.65337717 15.7071068,8.2928932 L15.7071068,8.2928932 L15.6128995,8.2097046 C15.2206082,7.9046797 14.6533772,7.93240924 14.2928932,8.2928932 L14.2928932,8.2928932 L12,10.585 L9.70710677,8.2928932 Z" id="Combined-Shape" fill="#97A5BB"></path>
    </g>
</svg>