<?xml version="1.0" encoding="UTF-8"?>
<svg width="24px" height="24px" viewBox="0 0 24 24" version="1.1" xmlns="http://www.w3.org/2000/svg" xmlns:xlink="http://www.w3.org/1999/xlink">
    <!-- Generator: Sketch 58 (84663) - https://sketch.com -->
    <title>icon/custom-reports</title>
    <desc>Created with Sketch.</desc>
    <g id="icon/custom-reports" stroke="none" stroke-width="1" fill="none" fill-rule="evenodd">
        <path d="M19.7782031,4.22179688 C17.7005352,2.14421484 14.9382031,1 12,1 C11.9884414,1 11.9769258,1 11.9653672,1 C11.9626172,1 11.9598242,1 11.9570312,1 C11.9516602,1 11.9462891,1 11.9409609,1 C9.02480078,1.01538281 6.28554297,2.15813672 4.22179688,4.22179688 C2.14421484,6.29946484 1,9.06179688 1,12 C1,14.9382031 2.14421484,17.7005352 4.22179688,19.7782031 C6.29946484,21.8557852 9.06179688,23 12,23 C14.0114531,23 15.9795937,22.4518477 17.6917266,21.4147539 C18.0976523,21.1688437 18.227418,20.6404141 17.9815078,20.2344883 C17.7355547,19.8284766 17.207168,19.6987969 16.8011992,19.9446641 C15.357707,20.8190781 13.6974375,21.28125 12,21.28125 C6.88229297,21.28125 2.71875,17.117707 2.71875,12 C2.71875,7.18668359 6.40177344,3.21740234 11.0976562,2.76227734 L11.0976562,12 C11.0976562,12.4746328 11.4823984,12.859375 11.9570312,12.859375 L21.2410312,12.859375 C21.0979453,14.3845508 20.5750586,15.8535664 19.7074766,17.1513086 C19.4436484,17.5458906 19.5496953,18.0795625 19.9442344,18.3433477 C20.3389023,18.6071758 20.8725312,18.5010859 21.1362734,18.1065469 C22.3555547,16.2828672 23,14.1712539 23,12 C23,9.06179688 21.8557852,6.29946484 19.7782031,4.22179688 Z M12.8164063,2.75432813 C13.4676406,2.81134766 14.0997969,2.93591406 14.7058281,3.1209375 L12.8164063,5.01014453 L12.8164063,2.75432813 Z M12.8164063,7.44067187 L16.4181758,3.839375 C16.9380977,4.12198047 17.4281133,4.45283984 17.882293,4.82589453 L12.8164063,9.89178125 L12.8164063,7.44067187 Z M13.9982617,11.140625 L19.104668,6.03421875 C19.4886367,6.49076172 19.8295508,6.98473047 20.1209648,7.50972266 L16.4900195,11.140625 L13.9982617,11.140625 Z M18.9207188,11.140625 L20.8525078,9.20883594 C21.0480156,9.8275 21.1803164,10.4739648 21.2418047,11.140625 L18.9207188,11.140625 Z" id="Shape" fill="#3397C5"></path>
    </g>
</svg>