<?xml version="1.0" encoding="UTF-8"?>
<svg width="24px" height="24px" viewBox="0 0 24 24" version="1.1" xmlns="http://www.w3.org/2000/svg" xmlns:xlink="http://www.w3.org/1999/xlink">
    <!-- Generator: Sketch 58 (84663) - https://sketch.com -->
    <title>icon/dashboard</title>
    <desc>Created with Sketch.</desc>
    <g id="icon/dashboard" stroke="none" stroke-width="1" fill="none" fill-rule="evenodd">
        <path d="M4.0078125,1 L5.0390625,1 C6.63833789,1 7.9501017,2.25464683 8.04175923,3.83134579 L8.046875,4.0078125 L8.046875,19.9921875 C8.046875,21.5914629 6.79222817,22.9032267 5.21552921,22.9948842 L5.0390625,23 L4.0078125,23 C2.40853711,23 1.0967733,21.7453532 1.00511577,20.1686542 L1,19.9921875 L1,4.0078125 C1,2.40853711 2.25464683,1.0967733 3.83134579,1.00511577 L4.0078125,1 L5.0390625,1 Z M19.9921875,9.89453125 C21.6506953,9.89453125 23,11.2438359 23,12.9023438 L23,12.9023438 L23,15.6953125 C23,16.1699453 22.6152578,16.5546875 22.140625,16.5546875 C21.6659922,16.5546875 21.28125,16.1699453 21.28125,15.6953125 L21.28125,15.6953125 L21.28125,12.9023438 C21.28125,12.1915547 20.7029766,11.6132812 19.9921875,11.6132812 L19.9921875,11.6132812 L12.859375,11.6132812 C12.1485859,11.6132812 11.5703125,12.1915547 11.5703125,12.9023438 L11.5703125,12.9023438 L11.5703125,19.9921875 C11.5703125,20.7029766 12.1485859,21.28125 12.859375,21.28125 L12.859375,21.28125 L19.9921875,21.28125 C20.7029766,21.28125 21.28125,20.7029766 21.28125,19.9921875 C21.28125,19.5175547 21.6659922,19.1328125 22.140625,19.1328125 C22.6152578,19.1328125 23,19.5175547 23,19.9921875 C23,21.6506953 21.6506953,23 19.9921875,23 L19.9921875,23 L12.859375,23 C11.2008672,23 9.8515625,21.6506953 9.8515625,19.9921875 L9.8515625,19.9921875 L9.8515625,12.9023438 C9.8515625,11.2438359 11.2008672,9.89453125 12.859375,9.89453125 L12.859375,9.89453125 Z M5.0390625,2.71875 L4.0078125,2.71875 C3.34144775,2.71875 2.79155182,3.22699814 2.72541781,3.8762013 L2.71875,4.0078125 L2.71875,19.9921875 C2.71875,20.6585522 3.22699814,21.2084482 3.8762013,21.2745822 L4.0078125,21.28125 L5.0390625,21.28125 C5.70542725,21.28125 6.25532318,20.7730019 6.32145719,20.1237987 L6.328125,19.9921875 L6.328125,4.0078125 C6.328125,3.29702344 5.74985156,2.71875 5.0390625,2.71875 Z M12.859375,1 L19.9921875,1 C21.5914629,1 22.9032267,2.25464683 22.9948842,3.83134579 L23,4.0078125 L23,5.0390625 C23,6.63833789 21.7453532,7.9501017 20.1686542,8.04175923 L19.9921875,8.046875 L12.859375,8.046875 C11.2600996,8.046875 9.9483358,6.79222817 9.85667827,5.21552921 L9.8515625,5.0390625 L9.8515625,4.0078125 C9.8515625,2.40853711 11.1062093,1.0967733 12.6829083,1.00511577 L12.859375,1 L19.9921875,1 Z M19.9921875,2.71875 L12.859375,2.71875 C12.1930103,2.71875 11.6431143,3.22699814 11.5769803,3.8762013 L11.5703125,4.0078125 L11.5703125,5.0390625 C11.5703125,5.70542725 12.0785606,6.25532318 12.7277638,6.32145719 L12.859375,6.328125 L19.9921875,6.328125 C20.6585522,6.328125 21.2084482,5.81987686 21.2745822,5.1706737 L21.28125,5.0390625 L21.28125,4.0078125 C21.28125,3.29702344 20.7029766,2.71875 19.9921875,2.71875 Z" id="Combined-Shape" fill="#3397C5"></path>
    </g>
</svg>