<?xml version="1.0" encoding="UTF-8"?>
<svg width="24px" height="24px" viewBox="0 0 24 24" version="1.1" xmlns="http://www.w3.org/2000/svg" xmlns:xlink="http://www.w3.org/1999/xlink">
    <!-- Generator: Sketch 58 (84663) - https://sketch.com -->
    <title>icon/deployment</title>
    <desc>Created with Sketch.</desc>
    <g id="icon/deployment" stroke="none" stroke-width="1" fill="none" fill-rule="evenodd">
        <path d="M10.4775828,19.9122807 C10.4775828,20.3860258 10.0936282,20.7699805 9.61988304,20.7699805 C8.44841924,20.7699805 7.30275341,20.4940759 6.2148818,19.9498051 C5.20071881,19.4427236 4.28304705,18.7269128 3.48732943,17.8228101 C1.9066155,16.026666 1,13.6792154 1,11.3825231 L1,5.36589305 C1,5.0280062 1.19834308,4.72161306 1.50657895,4.58324198 L9.23073525,1.11793372 C9.45320113,1.01825961 9.70732819,1.01775704 9.93012914,1.11676108 L17.7303393,4.58206933 C18.0400828,4.71960283 18.2397661,5.0268336 18.2397661,5.36589305 L18.2397661,8.0331384 C18.2397661,8.50688353 17.8558114,8.89083821 17.3820663,8.89083821 C16.9083212,8.89083821 16.5243665,8.50688353 16.5243665,8.0331384 L16.5243665,5.92339793 L9.58353132,2.8398666 L2.71539961,5.92105263 L2.71539961,11.3825231 C2.71539961,15.3977979 6.00632004,19.0545809 9.61988304,19.0545809 C10.0936282,19.0545809 10.4775828,19.4385356 10.4775828,19.9122807 Z M21.4561404,13.8226121 C20.946211,13.8226121 20.4959186,14.0772417 20.2247045,14.4658869 L10.5940089,14.4658869 C10.3227948,14.0772417 9.87250244,13.8226121 9.3625731,13.8226121 C8.53368665,13.8226121 7.86159844,14.4945328 7.86159844,15.3235867 C7.86159844,16.1524732 8.53368665,16.8245614 9.3625731,16.8245614 C9.87250244,16.8245614 10.3227948,16.5699318 10.5940089,16.1812865 L20.2247045,16.1812865 C20.4959186,16.5699318 20.946211,16.8245614 21.4561404,16.8245614 C22.2850268,16.8245614 22.957115,16.1524732 22.957115,15.3235867 C22.957115,14.4945328 22.2850268,13.8226121 21.4561404,13.8226121 Z M19.3854319,10.6062378 L14.496543,10.6062378 C14.2253289,10.2175926 13.7750365,9.96296296 13.2651072,9.96296296 C12.4362208,9.96296296 11.7641326,10.6348837 11.7641326,11.4639376 C11.7641326,12.2928241 12.4362208,12.9649123 13.2651072,12.9649123 C13.7750365,12.9649123 14.2253289,12.7102827 14.496543,12.3216374 L19.7407407,12.3216374 C19.9682322,12.3216374 20.1863426,12.2313444 20.3473288,12.0705257 L22.0627284,10.3551261 C22.2235471,10.1941399 22.3138402,9.9760295 22.3138402,9.74853801 L22.3138402,5.66223503 C22.7024854,5.39102096 22.957115,4.94072856 22.957115,4.43079922 C22.957115,3.60174526 22.2850268,2.92982456 21.4561404,2.92982456 C20.6272539,2.92982456 19.9551657,3.60174526 19.9551657,4.43079922 C19.9551657,4.94072856 20.2097953,5.39102096 20.5984405,5.66223503 L20.5984405,9.39322918 L19.3854319,10.6062378 Z M21.4561404,19.9980507 C21.4048794,19.9980507 21.3542885,20.000731 21.3045352,20.0057566 L19.8755939,18.5768153 C19.7146077,18.4158291 19.4964973,18.3255361 19.2690058,18.3255361 L14.5715918,18.3255361 C14.2978649,18.0352248 13.9098897,17.8538012 13.4795322,17.8538012 C12.6506457,17.8538012 11.9785575,18.5257219 11.9785575,19.3547758 C11.9785575,20.1836623 12.6506457,20.8557505 13.4795322,20.8557505 C14.0611598,20.8557505 14.565226,20.524732 14.8143275,20.0409357 L18.913697,20.0409357 L20.0012336,21.1286397 C19.9712476,21.247076 19.9551657,21.371208 19.9551657,21.4990253 C19.9551657,22.3279118 20.6272539,23 21.4561404,23 C22.2850268,23 22.957115,22.3279118 22.957115,21.4990253 C22.957115,20.6699714 22.2850268,19.9980507 21.4561404,19.9980507 L21.4561404,19.9980507 Z" id="Shape" fill="#3397C5"></path>
    </g>
</svg>