<?xml version="1.0" encoding="UTF-8"?>
<svg width="24px" height="24px" viewBox="0 0 24 24" version="1.1" xmlns="http://www.w3.org/2000/svg" xmlns:xlink="http://www.w3.org/1999/xlink">
    <!-- Generator: Sketch 58 (84663) - https://sketch.com -->
    <title>icon/device</title>
    <desc>Created with Sketch.</desc>
    <g id="icon/device" stroke="none" stroke-width="1" fill="none" fill-rule="evenodd">
        <path d="M22.140625,15.1484375 C22.6152954,15.1484375 23,14.7637329 23,14.2890625 L23,10.5078125 C23,8.61231996 21.4579925,7.0703125 19.5625,7.0703125 L17.8007812,7.0703125 L17.8007812,5.4375 C17.8007812,3.54200746 16.2587738,2 14.3632812,2 L4.4375,2 C2.54200746,2 1,3.54200746 1,5.4375 L1,11.845047 C1,13.7405396 2.54200746,15.282547 4.4375,15.282547 L8.60546875,15.282547 L8.60546875,17.001297 L6.62890625,17.001297 C6.15423584,17.001297 5.76953125,17.3860016 5.76953125,17.860672 C5.76953125,18.3353424 6.15423584,18.720047 6.62890625,18.720047 L12.0463257,18.720047 C12.117157,20.5534363 13.6299591,22.0234375 15.4804688,22.0234375 L19.5625,22.0234375 C21.4579925,22.0234375 23,20.48143 23,18.5859375 C23,18.1112671 22.6152954,17.7265625 22.140625,17.7265625 C21.6659546,17.7265625 21.28125,18.1112671 21.28125,18.5859375 C21.28125,19.5335999 20.5101624,20.3046875 19.5625,20.3046875 L15.4804688,20.3046875 C14.5328064,20.3046875 13.7617188,19.5335999 13.7617188,18.5859375 L13.7617188,10.5078125 C13.7617188,9.56015012 14.5328064,8.7890625 15.4804688,8.7890625 L19.5625,8.7890625 C20.5101624,8.7890625 21.28125,9.56015012 21.28125,10.5078125 L21.28125,14.2890625 C21.28125,14.7637329 21.6659546,15.1484375 22.140625,15.1484375 Z M10.3242188,15.282547 L12.0429688,15.282547 L12.0429688,17.001297 L10.3242188,17.001297 L10.3242188,15.282547 Z M12.0429688,10.5078125 L12.0429688,13.563797 L4.4375,13.563797 C3.48983762,13.563797 2.71875,12.7928772 2.71875,11.845047 L2.71875,5.4375 C2.71875,4.48983763 3.48983762,3.71875 4.4375,3.71875 L14.3632812,3.71875 C15.3109436,3.71875 16.0820312,4.48983763 16.0820312,5.4375 L16.0820312,7.0703125 L15.4804688,7.0703125 C13.5849762,7.0703125 12.0429688,8.61231996 12.0429688,10.5078125 Z M18.359375,17.2539062 C18.8340454,17.2539062 19.21875,17.6386108 19.21875,18.1132812 C19.21875,18.5879517 18.8340454,18.9726562 18.359375,18.9726562 L16.6835938,18.9726562 C16.2089233,18.9726562 15.8242188,18.5879517 15.8242188,18.1132812 C15.8242188,17.6386108 16.2089233,17.2539062 16.6835938,17.2539062 L18.359375,17.2539062 Z" id="Shape" fill="#3397C5"></path>
    </g>
</svg>