<?xml version="1.0" encoding="UTF-8"?>
<svg width="24px" height="24px" viewBox="0 0 24 24" version="1.1" xmlns="http://www.w3.org/2000/svg" xmlns:xlink="http://www.w3.org/1999/xlink">
    <!-- Generator: Sketch 58 (84663) - https://sketch.com -->
    <title>icon/help</title>
    <desc>Created with Sketch.</desc>
    <g id="icon/help" stroke="none" stroke-width="1" fill="none" fill-rule="evenodd">
        <path d="M6.75965882,21.9700928 C6.58224485,21.9700928 6.40315248,21.9355163 6.23194886,21.8646851 C5.71615598,21.6510162 5.3828125,21.1521759 5.3828125,20.5939178 L5.3828125,19.1328125 C5.3828125,18.6114807 4.95883177,18.1875 4.4375,18.1875 C2.54200746,18.1875 1,16.6454925 1,14.75 L1,4.4375 C1,2.54200746 2.54200746,1 4.4375,1 L19.5625,1 C21.4579925,1 23,2.54200746 23,4.4375 L23,10.453125 C23,10.9277954 22.6152954,11.3125 22.140625,11.3125 C21.6659546,11.3125 21.28125,10.9277954 21.28125,10.453125 L21.28125,4.4375 C21.28125,3.48983762 20.5101624,2.71875 19.5625,2.71875 L4.4375,2.71875 C3.48983762,2.71875 2.71875,3.48983762 2.71875,4.4375 L2.71875,14.75 C2.71875,15.6976624 3.48983762,16.46875 4.4375,16.46875 C5.90649414,16.46875 7.1015625,17.6638184 7.1015625,19.1328125 L7.1015625,19.765091 L8.97288512,17.8937683 C9.8918457,16.9748077 11.1136017,16.46875 12.4132385,16.46875 L19.5625,16.46875 C20.5101624,16.46875 21.28125,15.6976624 21.28125,14.75 C21.28125,14.2753296 21.6659546,13.890625 22.140625,13.890625 C22.6152954,13.890625 23,14.2753296 23,14.75 C23,16.6453247 21.4579925,18.1875 19.5625,18.1875 L12.4132385,18.1875 C11.5728302,18.1875 10.782608,18.514801 10.188263,19.1089782 L7.73081969,21.5664215 C7.46713255,21.8302765 7.11683656,21.9700928 6.75965882,21.9700928 Z M12.859375,13.9335938 C12.859375,13.4589233 12.4746704,13.0742188 12,13.0742188 C11.5253296,13.0742188 11.140625,13.4589233 11.140625,13.9335938 C11.140625,14.4082642 11.5253296,14.7929688 12,14.7929688 C12.4746704,14.7929688 12.859375,14.4082642 12.859375,13.9335938 Z M12.859375,10.9257812 L12.859375,10.3248901 C12.859375,10.2762146 12.8872376,10.2300568 12.9243317,10.2176361 C14.1482697,9.80976869 14.9687042,8.62326048 14.919693,7.3323517 C14.8621216,5.81602477 13.6292877,4.58319092 12.1129608,4.5256195 C11.3109894,4.49507142 10.5509796,4.7844391 9.97375488,5.34017942 C9.39619447,5.8962555 9.078125,6.64384459 9.078125,7.4453125 C9.078125,7.91998291 9.46282959,8.3046875 9.9375,8.3046875 C10.4121704,8.3046875 10.796875,7.91998291 10.796875,7.4453125 C10.796875,7.11532591 10.9279632,6.80732728 11.165802,6.57838441 C11.403305,6.34960938 11.7166748,6.23043821 12.0476685,6.24302672 C12.6713867,6.26669309 13.1784515,6.77392578 13.2022858,7.39764404 C13.2224274,7.93005371 12.8847199,8.41915891 12.3808441,8.58717347 C11.6391296,8.83441162 11.140625,9.53265381 11.140625,10.3248901 L11.140625,10.9257812 C11.140625,11.4004517 11.5253296,11.7851562 12,11.7851562 C12.4746704,11.7851562 12.859375,11.4004517 12.859375,10.9257812 Z" id="Shape" fill="#3397C5"></path>
    </g>
</svg>