<?xml version="1.0" encoding="UTF-8"?>
<svg width="24px" height="24px" viewBox="0 0 24 24" version="1.1" xmlns="http://www.w3.org/2000/svg" xmlns:xlink="http://www.w3.org/1999/xlink">
    <!-- Generator: Sketch 58 (84663) - https://sketch.com -->
    <title>icon/ip</title>
    <desc>Created with Sketch.</desc>
    <g id="icon/ip" stroke="none" stroke-width="1" fill="none" fill-rule="evenodd">
        <path d="M12.2443237,1 C14.7135162,1 17.0350036,1.96159362 18.7809448,3.7075348 C20.5270538,5.45364382 21.4886475,7.77513121 21.4886475,10.2443237 C21.4886475,12.4035034 20.7279663,14.504776 19.3465882,16.161087 C19.0831108,16.4771843 18.7972574,16.7768536 18.493489,17.0557754 L18.1839142,17.3276214 L12.700531,22.8110046 C12.574646,22.9370575 12.4094849,23 12.2443237,23 C12.1121948,23 11.9800659,22.9597168 11.8679604,22.8790644 L11.7879486,22.8110046 L6.30473327,17.3276214 C5.9895172,17.0630112 5.69072914,16.7762137 5.4127593,16.4716191 L5.14189147,16.1612549 L4.92898281,15.8959229 C3.6827166,14.283429 3,12.2898624 3,10.2443237 C3,7.77513121 3.96159362,5.45364382 5.7075348,3.7075348 C7.45364382,1.96159362 9.77496338,1 12.2443237,1 Z M12.2443237,2.29057311 C7.85865785,2.29057311 4.29057311,5.85865785 4.29057311,10.2443237 C4.29057311,12.1020508 4.94500732,13.9099274 6.1330261,15.33461 C6.44119265,15.7040405 6.78460693,16.0474548 7.15403746,16.3554535 L7.17596246,16.374651 L7.17596246,16.374651 L7.19700621,16.3947296 L12.2443237,21.4420471 L17.2916412,16.3947296 C17.3054047,16.3811341 17.3196716,16.3678742 17.33461,16.3554535 C17.7038727,16.0474548 18.0474548,15.7040405 18.3554535,15.33461 C19.5436401,13.9097595 20.1980744,12.1020508 20.1980744,10.2443237 C20.1980744,5.85865785 16.6299896,2.29057311 12.2443237,2.29057311 Z M11.9725799,8.12744141 L14.2645264,8.12744141 C15.1712341,8.12744141 15.9087524,8.8649597 15.9087524,9.77149964 C15.9087524,10.6304859 15.2468246,11.3376235 14.4062019,11.4096796 L14.2645264,11.4157257 L12.6179505,11.4157257 L12.6179505,12.7682342 C12.6179505,13.1247406 12.3289185,13.4136048 11.9725799,13.4136048 C11.6486359,13.4136048 11.380317,13.174874 11.334209,12.86362 L11.3272095,12.7682342 L11.3272095,8.77264404 C11.3272095,8.44869994 11.5660789,8.1805198 11.8772321,8.13443699 L11.9725799,8.12744141 L14.2645264,8.12744141 Z M10.0634918,8.12744141 C10.4198303,8.12744141 10.7088623,8.41630553 10.7088623,8.77264404 L10.7088623,8.77264404 L10.7088623,12.7682342 C10.7088623,13.1247406 10.4198303,13.4136048 10.0634918,13.4136048 C9.70715332,13.4136048 9.41812136,13.1247406 9.41812136,12.7682342 L9.41812136,12.7682342 L9.41812136,8.77264404 C9.41812136,8.41630553 9.70715332,8.12744141 10.0634918,8.12744141 Z M14.2645264,9.41801452 L12.6179505,9.41801452 L12.6179505,10.1251526 L14.2645264,10.1251526 C14.4595642,10.1251526 14.6181793,9.96653746 14.6181793,9.77166748 C14.6181793,9.57662962 14.4595642,9.41801452 14.2645264,9.41801452 Z" id="Combined-Shape" fill="#3397C5"></path>
    </g>
</svg>