<?xml version="1.0" encoding="UTF-8"?>
<svg width="24px" height="24px" viewBox="0 0 24 24" version="1.1" xmlns="http://www.w3.org/2000/svg" xmlns:xlink="http://www.w3.org/1999/xlink">
    <!-- Generator: Sketch 58 (84663) - https://sketch.com -->
    <title>icon/monitor</title>
    <desc>Created with Sketch.</desc>
    <g id="icon/monitor" stroke="none" stroke-width="1" fill="none" fill-rule="evenodd">
        <path d="M21.28125,10.734375 L21.28125,6.4375 C21.28125,5.48983762 20.5101624,4.71875 19.5625,4.71875 L4.4375,4.71875 C3.48983762,4.71875 2.71875,5.48983762 2.71875,6.4375 L2.71875,15.03125 C2.71875,15.9789124 3.48983762,16.75 4.4375,16.75 L19.5625,16.75 C20.5101624,16.75 21.28125,15.9789124 21.28125,15.03125 C21.28125,14.5565796 21.6659546,14.171875 22.140625,14.171875 C22.6152954,14.171875 23,14.5565796 23,15.03125 C23,16.9267425 21.4579925,18.46875 19.5625,18.46875 L12.859375,18.46875 L12.859375,20.1822967 L15.8671875,20.1822967 C16.3418579,20.1822967 16.7265625,20.5670013 16.7265625,21.0416717 C16.7265625,21.5163422 16.3418579,21.9010467 15.8671875,21.9010467 L8.1328125,21.9010467 C7.65814209,21.9010467 7.2734375,21.5163422 7.2734375,21.0416717 C7.2734375,20.5670013 7.65814209,20.1822967 8.1328125,20.1822967 L11.140625,20.1822967 L11.140625,18.46875 L4.4375,18.46875 C2.54200746,18.46875 1,16.9267425 1,15.03125 L1,6.4375 C1,4.54200746 2.54200746,3 4.4375,3 L19.5625,3 C21.4579925,3 23,4.54200746 23,6.4375 L23,10.734375 C23,11.2090454 22.6152954,11.59375 22.140625,11.59375 C21.6659546,11.59375 21.28125,11.2090454 21.28125,10.734375 Z M18.6601563,12.453125 C19.1348267,12.453125 19.5195313,12.0684204 19.5195313,11.59375 L19.5195313,8.62890625 C19.5195313,7.44424441 18.5557556,6.48046875 17.3710938,6.48046875 L14.3632813,6.48046875 C13.8886108,6.48046875 13.5039063,6.86517334 13.5039063,7.33984375 C13.5039063,7.81451416 13.8886108,8.19921875 14.3632813,8.19921875 L16.671341,8.19921875 L13.3565368,11.5140228 C13.1890259,11.6815338 12.9164429,11.6815338 12.7489319,11.5140228 L11.1347504,9.90000914 C10.7221832,9.48727415 10.1744995,9.26370241 9.59005735,9.27091979 C9.00662234,9.27780149 8.46347044,9.5142975 8.06063841,9.93676758 L4.58889773,13.5788727 C4.26126101,13.9224548 4.27435303,14.4664459 4.61793519,14.7939148 C4.78427122,14.9525299 4.99760436,15.03125 5.21076966,15.03125 C5.43753054,15.03125 5.6639557,14.9419556 5.83280944,14.7648773 L9.30455016,11.1226044 C9.41331481,11.0086365 9.54289245,10.9903412 9.61053467,10.989502 C9.67800905,10.9884949 9.8080902,11.0039368 9.91937256,11.1152191 L11.5333862,12.7294007 C12.371109,13.5669556 13.7341919,13.5669556 14.5717468,12.7294007 L17.8007812,9.50053405 L17.8007812,11.59375 C17.8007812,12.0684204 18.1854858,12.453125 18.6601562,12.453125 L18.6601563,12.453125 Z" id="Shape" fill="#3397C5"></path>
    </g>
</svg>