<?xml version="1.0" encoding="UTF-8"?>
<svg width="24px" height="24px" viewBox="0 0 24 24" version="1.1" xmlns="http://www.w3.org/2000/svg" xmlns:xlink="http://www.w3.org/1999/xlink">
    <!-- Generator: Sketch 58 (84663) - https://sketch.com -->
    <title>icon/roaming-client</title>
    <desc>Created with Sketch.</desc>
    <g id="icon/roaming-client" stroke="none" stroke-width="1" fill="none" fill-rule="evenodd">
        <path d="M17.2851562,13.0858002 L17.2851562,12.811203 L20.2622528,12.811203 C20.5339966,13.2006073 20.9851685,13.4557342 21.4960938,13.4557342 C22.3265991,13.4557342 23,12.7823334 23,11.951828 C23,11.1211548 22.3265991,10.4479217 21.4960938,10.4479217 C20.9851685,10.4479217 20.5339966,10.7028809 20.2622528,11.092453 L17.2851562,11.092453 L17.2851562,10.8282623 C17.2851562,10.1733246 17.0370788,9.57511901 16.6298828,9.12109375 C16.6809082,9.06419371 16.7297516,9.00527956 16.7755737,8.94401549 L19.7773438,8.94401549 C20.0052796,8.94401549 20.2238159,8.85337829 20.3849487,8.69224547 L22.1036987,6.97349547 C22.2649994,6.81236266 22.3554688,6.5938263 22.3554688,6.36589049 L22.3554688,3.7377472 C22.744873,3.46600342 23,3.01483154 23,2.50390625 C23,1.67340088 22.3265991,1 21.4960938,1 C20.6655884,1 19.9921875,1.67340088 19.9921875,2.50390625 C19.9921875,3.01483154 20.2473145,3.46600342 20.6367188,3.7377472 L20.6367188,6.0098877 L19.421341,7.22526549 L17.2851562,7.22526549 L17.2851562,5.15638734 C17.2851562,3.74127197 16.1286926,2.58984375 14.7070312,2.58984375 L3.578125,2.58984375 C2.1564636,2.58984375 1,3.74127197 1,5.15638734 L1,7.41392516 C1,8.06886293 1.24807741,8.66706849 1.65527344,9.12109375 C1.24807741,9.57511901 1,10.1733246 1,10.8282623 L1,13.0858002 C1,13.741745 1.24874876,14.3406219 1.65695188,14.7948151 C1.24874876,15.2511902 1,15.8527527 1,16.5117187 L1,18.7460937 C1,20.1677551 2.1564636,21.3242187 3.578125,21.3242187 L10.4101562,21.3242187 C10.8848267,21.3242187 11.2695312,20.9395142 11.2695312,20.4648437 C11.2695312,19.9901733 10.8848267,19.6054687 10.4101562,19.6054687 L3.578125,19.6054687 C3.10429381,19.6054687 2.71875,19.2199249 2.71875,18.7460937 L2.71875,16.5117187 C2.71875,16.0378876 3.10429381,15.6523437 3.578125,15.6523437 L7.1875,15.6523437 L7.1875,17.671875 C7.1875,18.1465454 7.57220459,18.53125 8.046875,18.53125 C8.52154541,18.53125 8.90625,18.1465454 8.90625,17.671875 L8.90625,15.6523437 L14.7070312,15.6523437 C15.1808624,15.6523437 15.5664062,16.0378876 15.5664062,16.5117187 L15.5664062,18.7460937 C15.5664062,19.2199249 15.1808624,19.6054687 14.7070312,19.6054687 C14.2323608,19.6054687 13.8476562,19.9901733 13.8476562,20.4648437 C13.8476562,20.9395142 14.2323608,21.3242187 14.7070312,21.3242187 C16.1286926,21.3242187 17.2851562,20.1677551 17.2851562,18.7460937 L17.2851562,16.6783905 L19.4643097,16.6783905 L20.6796875,17.8936005 L20.6796875,20.2333832 C20.2661133,20.5012665 19.9921875,20.9665375 19.9921875,21.4960937 C19.9921875,22.3265991 20.6655884,23 21.4960938,23 C22.3265991,23 23,22.3265991 23,21.4960937 C23,21.0041351 22.7636719,20.5673981 22.3984375,20.2929687 L22.3984375,17.5377655 C22.3984375,17.3096618 22.3079681,17.0911255 22.1466675,16.9299927 L20.4279175,15.2112427 C20.2667847,15.0501099 20.0482483,14.9596405 19.8203125,14.9596405 L16.7639923,14.9596405 C16.7210236,14.9027405 16.6757049,14.8478546 16.6282044,14.7949829 C17.0364075,14.3407898 17.2851562,13.741745 17.2851562,13.0858002 Z M2.71875,5.15638734 C2.71875,4.6889343 3.10429381,4.30859375 3.578125,4.30859375 L7.1875,4.30859375 L7.1875,6.28515625 C7.1875,6.75982666 7.57220459,7.14453125 8.046875,7.14453125 C8.52154541,7.14453125 8.90625,6.75982666 8.90625,6.28515625 L8.90625,4.30859375 L14.7070312,4.30859375 C15.1808624,4.30859375 15.5664062,4.6889343 15.5664062,5.15638734 L15.5664062,7.41392516 C15.5664062,7.8813782 15.1808624,8.26171875 14.7070312,8.26171875 L3.578125,8.26171875 C3.10429381,8.26171875 2.71875,7.8813782 2.71875,7.41392516 L2.71875,5.15638734 Z M3.578125,13.9335937 C3.10429381,13.9335937 2.71875,13.5532532 2.71875,13.0858002 L2.71875,10.8282623 C2.71875,10.3608093 3.10429381,9.98046875 3.578125,9.98046875 L7.1875,9.98046875 L7.1875,12 C7.1875,12.4746704 7.57220459,12.859375 8.046875,12.859375 C8.52154541,12.859375 8.90625,12.4746704 8.90625,12 L8.90625,9.98046875 L14.7070312,9.98046875 C15.1808624,9.98046875 15.5664062,10.3608093 15.5664062,10.8282623 L15.5664062,13.0858002 C15.5664062,13.5532532 15.1808624,13.9335937 14.7070312,13.9335937 L3.578125,13.9335937 Z M4.13671875,6.28515625 C4.13671875,5.81048584 4.52142334,5.42578125 4.99609375,5.42578125 C5.47076416,5.42578125 5.85546875,5.81048584 5.85546875,6.28515625 C5.85546875,6.75982666 5.47076416,7.14453125 4.99609375,7.14453125 C4.52142334,7.14453125 4.13671875,6.75982666 4.13671875,6.28515625 Z M5.85546875,12 C5.85546875,12.4746704 5.47076416,12.859375 4.99609375,12.859375 C4.52142334,12.859375 4.13671875,12.4746704 4.13671875,12 C4.13671875,11.5253296 4.52142334,11.140625 4.99609375,11.140625 C5.47076416,11.140625 5.85546875,11.5253296 5.85546875,12 Z M5.0390625,16.8125 C5.51373291,16.8125 5.8984375,17.1972046 5.8984375,17.671875 C5.8984375,18.1465454 5.51373291,18.53125 5.0390625,18.53125 C4.56439209,18.53125 4.1796875,18.1465454 4.1796875,17.671875 C4.1796875,17.1972046 4.56439209,16.8125 5.0390625,16.8125 Z" id="Shape" fill="#3397C5"></path>
    </g>
</svg>