<?xml version="1.0" encoding="UTF-8"?>
<svg width="24px" height="24px" viewBox="0 0 24 24" version="1.1" xmlns="http://www.w3.org/2000/svg" xmlns:xlink="http://www.w3.org/1999/xlink">
    <!-- Generator: Sketch 58 (84663) - https://sketch.com -->
    <title>icon/roaming-client copy 2</title>
    <desc>Created with Sketch.</desc>
    <g id="icon/roaming-client-copy-2" stroke="none" stroke-width="1" fill="none" fill-rule="evenodd">
        <path d="M4.5477505,1 L19.4520721,1 C21.343137,1 22.8934846,2.44093158 22.9947399,4.24917418 L23,4.4375 L23,15.265625 C23,15.7403008 22.602785,16.125 22.112885,16.125 C21.6608333,16.125 21.2876047,15.7972089 21.2329993,15.3734342 L21.2261247,15.265625 L21.226,6.5 L2.773,6.5 L2.77387525,19.5625 C2.77387525,20.462792 3.49212909,21.2037011 4.40248962,21.2755413 L4.5477505,21.28125 L19.4522495,21.28125 C20.43032,21.28125 21.2261247,20.4190354 21.2261247,19.5625 C21.2261247,19.0878242 21.6231624,18.703125 22.1130624,18.703125 C22.602785,18.703125 23,19.0878242 23,19.5625 C23,21.3947978 21.5126878,22.896806 19.6465989,22.994904 L19.4522495,23 L4.5477505,23 C2.65668566,23 1.10650377,21.5590684 1.00525949,19.7508258 L1,19.5625 L1,4.4375 C1,2.60520221 2.4871464,1.10319404 4.35338453,1.00509604 L4.5477505,1 L19.4520721,1 Z M7.72727273,16 C7.85637403,16 7.96452987,16.0896861 7.99279682,16.2101835 L8,16.2727273 L8,17.7272727 C8,17.8564052 7.9102872,17.9645388 7.78980504,17.9927987 L7.72727273,18 L6.27272727,18 C6.14362597,18 6.03547013,17.9103139 6.00720318,17.7898165 L6,17.7272727 L6,16.2727273 C6,16.1435948 6.0897128,16.0354612 6.21019496,16.0072013 L6.27272727,16 L7.72727273,16 Z M17.6666667,17 C17.8507556,17 18,17.2238 18,17.5 C18,17.7455704 17.8820785,17.9496329 17.7265822,17.9919484 L17.6666667,18 L16.3333333,18 C16.1492444,18 16,17.7762667 16,17.5 C16,17.2544889 16.1179215,17.0503802 16.2734178,17.0080538 L16.3333333,17 L17.6666667,17 Z M14.7230622,17 C14.8759853,17 15,17.2238 15,17.5 C15,17.7417333 14.9051078,17.9432458 14.7789134,17.9898469 L14.7230991,18 L9.27690092,18 C9.12397777,18 9,17.7762667 9,17.5 C9,17.258325 9.09492048,17.0567688 9.22109717,17.0101559 L9.27690092,17 L14.7230622,17 Z M7.45454545,16.5454545 L6.54545455,16.5454545 L6.54545455,17.4545455 L7.45454545,17.4545455 L7.45454545,16.5454545 Z M7.72727273,13 C7.85637403,13 7.96452987,13.0896861 7.99279682,13.2101835 L8,13.2727273 L8,14.7272727 C8,14.8564052 7.9102872,14.9645388 7.78980504,14.9927987 L7.72727273,15 L6.27272727,15 C6.14362597,15 6.03547013,14.9103139 6.00720318,14.7898165 L6,14.7272727 L6,13.2727273 C6,13.1435948 6.0897128,13.0354612 6.21019496,13.0072013 L6.27272727,13 L7.72727273,13 Z M7.45454545,13.5454545 L6.54545455,13.5454545 L6.54545455,14.4545455 L7.45454545,14.4545455 L7.45454545,13.5454545 Z M17.6666667,13 C17.8507556,13 18,13.2238 18,13.5 C18,13.7455704 17.8820785,13.9496329 17.7265822,13.9919484 L17.6666667,14 L16.3333333,14 C16.1492444,14 16,13.7762667 16,13.5 C16,13.2544889 16.1179215,13.0503802 16.2734178,13.0080538 L16.3333333,13 L17.6666667,13 Z M14.7230622,13 C14.8759853,13 15,13.2238 15,13.5 C15,13.7417333 14.9051078,13.9432458 14.7789134,13.9898469 L14.7230991,14 L9.27690092,14 C9.12397777,14 9,13.7762667 9,13.5 C9,13.258325 9.09492048,13.0567687 9.22109717,13.0101559 L9.27690092,13 L14.7230622,13 Z M9.68945047,9.00056435 L9.76446283,9.01310855 C9.91422233,9.05522368 10.008469,9.18814717 9.99939867,9.32852635 L9.98603242,9.39895135 L9.22634638,11.7789696 C9.18883102,11.8966192 9.08082025,11.9823253 8.95096955,11.9975739 C8.84719467,12.0098389 8.7449979,11.9750011 8.67377719,11.9066438 L8.62662901,11.8493032 L7.99991995,10.8676087 L7.37321089,11.8493032 C7.31306303,11.943522 7.20500822,12 7.08999635,12 C7.07639042,12 7.06269644,11.9991855 7.04895842,11.9975739 C6.94511308,11.985375 6.85521712,11.9280834 6.80418214,11.845418 L6.77358159,11.7789696 L6.01398361,9.39928195 C5.96162943,9.23530805 6.06083378,9.06253213 6.2355532,9.01343914 C6.38531271,8.97132402 6.54196279,9.03370986 6.61660531,9.15565441 L6.64668104,9.22138184 L7.19144633,10.9279831 L7.71666137,10.1053036 C7.77632488,10.0118286 7.8838513,9.95463607 7.99996398,9.95463607 C8.09285413,9.95463607 8.18024907,9.99123927 8.24203915,10.0537398 L8.2832666,10.1053036 L8.80848163,10.9279831 L9.35333499,9.22105125 C9.39073084,9.10392704 9.49536552,9.02298247 9.6157452,9.00418063 L9.68945047,9.00056435 Z M13.689416,9.00056754 L13.7644576,9.01312693 C13.9142204,9.0552421 14.0084692,9.18816571 13.9993987,9.32854501 L13.9860321,9.39897008 L13.2263293,11.7789904 C13.1888132,11.8966401 13.0808,11.9823463 12.9509465,11.9975949 C12.8471341,12.0097938 12.744928,11.9749956 12.6737945,11.9066568 L12.6267309,11.849324 L11.999964,10.8676287 L11.3732411,11.849324 C11.3130919,11.943543 11.2050348,12 11.0900203,12 C11.0764141,12 11.0627198,11.9992066 11.0489815,11.9975949 C10.9451339,11.985396 10.855236,11.9281043 10.8041998,11.8454601 L10.7735986,11.7790317 L10.0139839,9.39930067 C9.96162859,9.23532663 10.0608351,9.06255056 10.2355584,9.01345753 C10.3853967,8.97130694 10.5419963,9.03371814 10.6166235,9.15567075 L10.6466953,9.22140041 L11.1914726,10.9280445 L11.7166111,10.1053643 C11.7762759,10.0118892 11.8838047,9.9546966 11.99992,9.9546966 C12.0928121,9.9546966 12.180209,9.99129984 12.2420004,10.0538004 L12.2832288,10.1053643 L12.8084554,10.9280445 L13.3533648,9.22106982 C13.39073,9.10391599 13.4953131,9.02296291 13.6156993,9.0041737 L13.689416,9.00056754 Z M17.6895035,9.00056436 L17.7645311,9.01310882 C17.9142933,9.05518938 18.0085417,9.18814089 17.999388,9.32853087 L17.9859726,9.39895948 L17.2262729,11.7789849 C17.1888009,11.8966369 17.0807881,11.9823447 16.9508911,11.9975936 C16.9372408,11.9992053 16.9234585,12 16.9098964,12 C16.81785,12 16.7302844,11.9638396 16.6681663,11.9011555 L16.6266767,11.8493199 L15.9999564,10.8676054 L15.3731919,11.8493199 C15.3059537,11.9546984 15.1787867,12.0128425 15.0489776,11.9975936 C14.9451304,11.9853945 14.8552328,11.9281017 14.8041969,11.8454347 L14.7735958,11.7789849 L14.0139841,9.39924875 C13.961629,9.23527152 14.0608351,9.06249208 14.2355137,9.01339809 C14.3853891,8.97131753 14.5419612,9.03370971 14.6165796,9.15563144 L14.646649,9.22134503 L15.1914241,10.9279811 L15.7166927,10.1052848 C15.7763573,10.0118079 15.8838856,9.95461418 16,9.95461418 C16.0928569,9.95461418 16.1802746,9.99121813 16.2420532,10.0537199 L16.2832641,10.1052848 L16.8085327,10.9279811 L17.3533959,9.22105575 C17.3907924,9.10392916 17.4954065,9.02298294 17.6157916,9.00418071 L17.6895035,9.00056436 Z M14,2.718 L4.5477505,2.71875 C3.61862569,2.71875 2.85391561,3.41464448 2.77976741,4.29674745 L2.77387525,4.4375 L2.773,5.5 L14,5.5 L14,2.718 Z M19.4522495,2.71875 L15,2.718 L15,5.5 L21.226,5.5 L21.2261247,4.4375 C21.2261247,3.53720801 20.5079109,2.79629893 19.5975164,2.72445875 L19.4522495,2.71875 Z M16.5,4 C16.7761424,4 17,4.22385763 17,4.5 C17,4.77614237 16.7761424,5 16.5,5 C16.2238576,5 16,4.77614237 16,4.5 C16,4.22385763 16.2238576,4 16.5,4 Z M18.5,4 C18.7761424,4 19,4.22385763 19,4.5 C19,4.77614237 18.7761424,5 18.5,5 C18.2238576,5 18,4.77614237 18,4.5 C18,4.22385763 18.2238576,4 18.5,4 Z M20.5,4 C20.7761424,4 21,4.22385763 21,4.5 C21,4.77614237 20.7761424,5 20.5,5 C20.2238576,5 20,4.77614237 20,4.5 C20,4.22385763 20.2238576,4 20.5,4 Z" id="Combined-Shape" fill="#3397C5"></path>
    </g>
</svg>