<?xml version="1.0" encoding="UTF-8"?>
<svg width="24px" height="24px" viewBox="0 0 24 24" version="1.1" xmlns="http://www.w3.org/2000/svg" xmlns:xlink="http://www.w3.org/1999/xlink">
    <!-- Generator: Sketch 58 (84663) - https://sketch.com -->
    <title>icon/roaming-client copy</title>
    <desc>Created with Sketch.</desc>
    <g id="icon/roaming-client-copy" stroke="none" stroke-width="1" fill="none" fill-rule="evenodd">
        <path d="M21.0161108,16.125 C21.5060108,16.125 21.9032258,15.7403008 21.9032258,15.265625 L21.9032258,4.4375 C21.9032258,2.54201953 20.3115719,1 18.3552979,1 L7.45097631,1 C5.49470234,1 3.90322581,2.54201953 3.90322581,4.4375 L3.90322581,19.5625 C3.90322581,21.4579805 5.49470234,23 7.45097631,23 L18.3554753,23 C20.3115719,23 21.9032258,21.4579805 21.9032258,19.5625 C21.9032258,19.0878242 21.5060108,18.703125 21.0162882,18.703125 C20.5263882,18.703125 20.1293506,19.0878242 20.1293506,19.5625 C20.1293506,20.5101758 19.3335458,21.28125 18.3554753,21.28125 L7.45097631,21.28125 C6.47295019,21.28125 5.67710106,20.5101758 5.67710106,19.5625 L5.67710106,4.4375 C5.67710106,3.48982422 6.47295019,2.71875 7.45097631,2.71875 L18.3554753,2.71875 C19.3335458,2.71875 20.1293506,3.48982422 20.1293506,4.4375 L20.1293506,15.265625 C20.1291732,15.7403008 20.5263882,16.125 21.0161108,16.125 L21.0161108,16.125 Z M11.1761143,17.328125 L8.33791394,17.328125 C7.84801394,17.328125 7.45097631,17.7128242 7.45097631,18.1875 C7.45097631,18.6621758 7.84801394,19.046875 8.33791394,19.046875 L11.1761143,19.046875 C11.6660143,19.046875 12.063052,18.6621758 12.063052,18.1875 C12.063052,17.7128242 11.6660143,17.328125 11.1761143,17.328125 L11.1761143,17.328125 Z M11.1761143,14.1888711 L8.33791394,14.1888711 C7.84801394,14.1888711 7.45097631,14.5736133 7.45097631,15.0482461 C7.45097631,15.5229219 7.84801394,15.9076211 8.33791394,15.9076211 L11.1761143,15.9076211 C11.6660143,15.9076211 12.063052,15.5229219 12.063052,15.0482461 C12.063052,14.5736133 11.6660143,14.1888711 11.1761143,14.1888711 L11.1761143,14.1888711 Z M14.679518,14.1914063 C14.189618,14.1914063 13.7925803,14.5761055 13.7925803,15.0507812 C13.7925803,15.525457 14.189618,15.9101562 14.679518,15.9101562 L16.6307807,15.9101562 C17.1206807,15.9101562 17.5177184,15.525457 17.5177184,15.0507812 C17.5177184,14.5761055 17.1206807,14.1914063 16.6307807,14.1914063 L14.679518,14.1914063 Z M11.1761143,11.0117188 L8.33791394,11.0117188 C7.84801394,11.0117188 7.45097631,11.396418 7.45097631,11.8710937 C7.45097631,12.3457695 7.84801394,12.7304687 8.33791394,12.7304687 L11.1761143,12.7304687 C11.6660143,12.7304687 12.063052,12.3457695 12.063052,11.8710937 C12.063052,11.396418 11.6660143,11.0117188 11.1761143,11.0117188 L11.1761143,11.0117188 Z M18.404656,11.8736289 C18.404656,11.3989531 18.0076184,11.0142539 17.5177184,11.0142539 L14.679518,11.0142539 C14.189618,11.0142539 13.7925803,11.3989531 13.7925803,11.8736289 C13.7925803,12.3482617 14.189618,12.7330039 14.679518,12.7330039 L17.5177184,12.7330039 C18.0076184,12.7330039 18.404656,12.3482617 18.404656,11.8736289 L18.404656,11.8736289 Z M12.2019907,5.0755 C11.8553755,4.74012891 11.2937666,4.74047266 10.9476392,5.07631641 L9.32636157,6.64953125 L8.66430698,5.98772656 C8.32336816,5.64698438 7.76193664,5.63843359 7.41008849,5.96877734 C7.05846206,6.29907812 7.04963704,6.84323437 7.3907089,7.18397656 L8.68022751,8.47303906 C8.84568573,8.63855469 9.07278611,8.73269922 9.31044104,8.734375 L9.31700438,8.734375 C9.55244198,8.734375 9.7781676,8.64375391 9.94464579,8.48210547 L12.2028777,6.29069922 C12.5489607,5.95498438 12.5486503,5.41082813 12.2019907,5.0755 L12.2019907,5.0755 Z M18.1448276,5.94746484 L17.3529697,6.71484375 L18.1448276,7.48222266 C18.4912655,7.81776562 18.4912655,8.36192187 18.1448276,8.69746484 C17.9717861,8.86530078 17.7446414,8.94921875 17.5177184,8.94921875 C17.290618,8.94921875 17.063695,8.86530078 16.8904761,8.69746484 L16.0986182,7.93021484 L15.3066272,8.69746484 C15.1335857,8.86530078 14.906441,8.94921875 14.679518,8.94921875 C14.4524176,8.94921875 14.2254946,8.86530078 14.0522757,8.69746484 C13.7059709,8.36192187 13.7059709,7.81776562 14.0522757,7.48222266 L14.8442666,6.71484375 L14.0522757,5.94746484 C13.7059709,5.61192187 13.7059709,5.06776562 14.0522757,4.73222266 C14.3987135,4.39655078 14.9603224,4.39655078 15.3066272,4.73222266 L16.0986182,5.49947266 L16.8904761,4.73222266 C17.2369139,4.39655078 17.7985228,4.39655078 18.1448276,4.73222266 C18.4910881,5.06776562 18.4912655,5.61192187 18.1448276,5.94746484 L18.1448276,5.94746484 Z" id="Fill-1" fill="#3397C5"></path>
    </g>
</svg>