<?xml version="1.0" encoding="UTF-8"?>
<svg width="24px" height="24px" viewBox="0 0 24 24" version="1.1" xmlns="http://www.w3.org/2000/svg" xmlns:xlink="http://www.w3.org/1999/xlink">
    <!-- Generator: Sketch 58 (84663) - https://sketch.com -->
    <title>icon/roaming-client copy 3</title>
    <desc>Created with Sketch.</desc>
    <g id="icon/roaming-client-copy-3" stroke="none" stroke-width="1" fill="none" fill-rule="evenodd">
        <path d="M8.23609998,9 C10.4927242,11.2541842 12.7420385,13.5010666 14.9987327,15.7553207 C14.9993273,15.7500801 15.0023352,15.765173 14.9962494,15.771287 C14.5410352,16.2285104 14.0910674,16.6912189 13.6268644,17.1391839 C13.3671317,17.3897886 13.025485,17.3678829 12.7545599,17.1016264 C12.339953,16.6941536 11.9334955,16.2784007 11.5189586,15.8708231 C11.0956076,15.4545113 10.5722599,15.352844 10.0884003,15.6353812 C9.89193944,15.7500801 9.71947219,15.9389158 9.59062017,16.1306163 C8.84241102,17.2441353 8.11756591,18.3733761 7.36869222,19.486406 C7.13973854,19.8266945 6.89668948,20.1734463 6.59544017,20.4459566 C5.97786682,21.0045329 5.23710759,21.1377485 4.44997001,20.8591941 C3.66227282,20.5804649 3.19932891,20.0052236 3.03329727,19.1890902 C3.02532271,19.1498557 3.01122733,19.1118091 3,19.0732384 L3,18.5501933 C3.03039425,18.4336428 3.05736084,18.3161489 3.09170739,18.2007513 C3.23245129,17.727876 3.49760525,17.3351118 3.90574159,17.0598415 C5.22549551,16.1697809 6.55144021,15.2888739 7.87808442,14.4090849 C8.16425903,14.2193059 8.39093927,13.9907466 8.47544157,13.6486414 C8.58918391,13.1883785 8.44721584,12.8027415 8.12043396,12.4750304 L6.93624748,11.2913924 L6.93624748,11.2913924 C6.59711902,10.9512436 6.59585988,10.6302405 6.93257498,10.2924325 C7.33067318,9.89306516 7.73020539,9.49506038 8.12956272,9.09691584 C8.16583296,9.06072088 8.20542593,9.02777509 8.23609998,9 Z M14.4608404,3.02648929 C14.8736831,3.24431071 15.1606148,3.60216786 15.453778,3.94745357 C15.5985614,4.11795357 15.5822172,4.33431071 15.4957246,4.53891786 C15.4550599,4.63520357 15.4138967,4.731275 15.3525792,4.87523929 C15.4732202,4.82073929 15.5503122,4.78616786 15.6271905,4.75116786 C15.9395466,4.608775 16.1781935,4.641525 16.4218611,4.883525 C17.0698967,5.52716786 17.7145852,6.174275 18.356603,6.82398929 C18.5979561,7.06820357 18.6223122,7.37481071 18.4290659,7.66648929 C18.0589887,8.22520357 17.6841045,8.78070357 17.3114279,9.33766786 C17.2755347,9.39131071 17.2411371,9.44591786 17.2210896,9.522025 C17.2729353,9.48948929 17.3258493,9.45859643 17.3763774,9.42416786 C17.9199739,9.05406071 18.4626089,8.68263214 19.006597,8.31320357 C19.3569828,8.07523929 19.6283537,8.10020357 19.9269294,8.39713214 C20.20033,8.66898929 20.473873,8.94070357 20.7431074,9.21659643 C21.0427513,9.52359643 21.0436059,9.86634643 20.7391905,10.1722393 C19.1577543,11.7614893 17.573968,13.3483464 15.9908226,14.9358464 C15.9703478,14.9564179 15.9476653,14.974775 15.9410777,14.9806321 C13.6432736,12.6759893 11.3503122,10.3762393 9.01134481,8.03031071 C9.04506588,8.01020357 9.11720831,7.98438214 9.16624095,7.93531071 C10.6883181,6.41256071 12.2067632,4.88613214 13.7307632,3.365275 C13.8617306,3.23459643 14.0271312,3.13859643 14.1765436,3.02648929 L14.4608404,3.02648929 Z" id="Combined-Shape" fill="#3397C5"></path>
    </g>
</svg>