<?xml version="1.0" encoding="UTF-8"?>
<svg width="24px" height="24px" viewBox="0 0 24 24" version="1.1" xmlns="http://www.w3.org/2000/svg" xmlns:xlink="http://www.w3.org/1999/xlink">
    <!-- Generator: Sketch 58 (84663) - https://sketch.com -->
    <title>icon/setting</title>
    <desc>Created with Sketch.</desc>
    <g id="icon/setting" stroke="none" stroke-width="1" fill="none" fill-rule="evenodd">
        <path d="M12.4297305,1 C13.8513086,1 15.0078555,2.15654688 15.0078555,3.578125 L15.0078555,3.578125 L15.0078555,4.01099219 C15.0078555,4.12481641 15.0795273,4.22798438 15.1905156,4.27383203 L15.1905156,4.27383203 L15.2067148,4.28053516 C15.3176602,4.32664062 15.4418398,4.30455469 15.5224062,4.22398828 L15.5224062,4.22398828 L15.8283867,3.91800781 C16.3153086,3.43104297 16.9627188,3.162875 17.6514219,3.162875 C18.3400391,3.162875 18.9874922,3.43104297 19.474457,3.91800781 L19.474457,3.91800781 L20.0821211,4.52567188 C21.087332,5.53088281 21.087332,7.16648828 20.0821211,8.17169922 L20.0821211,8.17169922 L19.7760547,8.47772266 C19.6955742,8.55824609 19.6734453,8.68229688 19.7197227,8.79375781 L19.7197227,8.79375781 L19.7273711,8.81232031 C19.7720586,8.92051563 19.8752695,8.99223047 19.9891367,8.99223047 L19.9891367,8.99223047 L20.421875,8.99223047 C21.8434531,8.99223047 23,10.1487773 23,11.5703555 L23,11.5703555 L23,12.4297305 C23,13.8513086 21.8434531,15.0078555 20.421875,15.0078555 L20.421875,15.0078555 L19.9890508,15.0078555 C19.8752266,15.0078555 19.7720156,15.0795703 19.726168,15.1905586 L19.726168,15.1905586 L19.7196797,15.2062852 C19.6734023,15.3177461 19.6954883,15.4417969 19.7760547,15.5223203 L19.7760547,15.5223203 L20.0820781,15.8283438 C20.569,16.3152656 20.837168,16.9626758 20.837168,17.6513359 C20.837168,18.3399531 20.569,18.9874062 20.0820781,19.4743281 L20.0820781,19.4743281 L19.4744141,20.0819922 C18.9874492,20.568957 18.3400391,20.837125 17.6513789,20.837125 C16.9627188,20.837125 16.3152656,20.568957 15.8283438,20.0819922 L15.8283438,20.0819922 L15.5223203,19.7759687 C15.4418398,19.6954883 15.3177461,19.6734023 15.2063281,19.7196367 L15.2063281,19.7196367 L15.1895273,19.7265977 C15.0794844,19.7720156 15.0078125,19.8751836 15.0078125,19.9890078 L15.0078125,19.9890078 L15.0078125,20.421875 C15.0078125,21.8434531 13.8512656,23 12.4296875,23 L12.4296875,23 L11.5703125,23 C10.1487344,23 8.9921875,21.8434531 8.9921875,20.421875 L8.9921875,20.421875 L8.9921875,19.9890078 C8.9921875,19.8751836 8.92051563,19.7720156 8.80952734,19.726168 L8.80952734,19.726168 L8.79332813,19.7194648 C8.68233984,19.6733594 8.55811719,19.6954453 8.47763672,19.7760117 L8.47763672,19.7760117 L8.17165625,20.0819922 C7.68473437,20.568957 7.03732422,20.837125 6.34862109,20.837125 C5.66000391,20.837125 5.01255078,20.568957 4.52558594,20.0819922 L4.52558594,20.0819922 L3.91792188,19.4743281 C3.431,18.9873633 3.16283203,18.3399531 3.16283203,17.6513359 C3.16283203,16.9626758 3.431,16.3152656 3.91796484,15.8283008 L3.91796484,15.8283008 L4.22394531,15.5222773 C4.30446875,15.4417539 4.32659766,15.3177031 4.28032031,15.2062422 L4.28032031,15.2062422 L4.27267188,15.1876797 C4.22794141,15.0794844 4.12477344,15.0077695 4.01090625,15.0077695 L4.01090625,15.0077695 L3.578125,15.0077695 C2.15654688,15.0077695 1,13.8512227 1,12.4296445 L1,12.4296445 L1,11.5702695 C1,10.1486914 2.15654688,8.99214453 3.578125,8.99214453 L3.578125,8.99214453 L4.01094922,8.99214453 C4.12477344,8.99214453 4.22802734,8.92042969 4.27383203,8.80944141 L4.27383203,8.80944141 L4.27903125,8.79689453 C4.32659766,8.68225391 4.30451172,8.55820313 4.22398828,8.47763672 L4.22398828,8.47763672 L3.91800781,8.17165625 C2.91275391,7.16640234 2.91275391,5.53083984 3.91796484,4.52558594 L3.91796484,4.52558594 L4.52562891,3.91800781 C5.01259375,3.43104297 5.66000391,3.162875 6.34866406,3.162875 C7.03732422,3.162875 7.68477734,3.43104297 8.17169922,3.91800781 L8.17169922,3.91800781 L8.47772266,4.22403125 C8.55820313,4.30455469 8.68238281,4.32668359 8.79371484,4.28036328 L8.79371484,4.28036328 L8.81051563,4.27340234 C8.92055859,4.22798438 8.99223047,4.12481641 8.99223047,4.01099219 L8.99223047,4.01099219 L8.99223047,3.578125 C8.99223047,2.15654688 10.1487773,1 11.5703555,1 L11.5703555,1 Z M12.4296875,2.71875 L11.5703125,2.71875 C11.0964531,2.71875 10.7109375,3.10426563 10.7109375,3.578125 L10.7109375,3.578125 L10.7109375,4.01099219 C10.7109375,4.82331641 10.222082,5.55004687 9.46553125,5.86242969 L9.46553125,5.86242969 L9.45341406,5.86745703 C8.69677734,6.18181641 7.83684375,6.01372266 7.26239453,5.43940234 L7.26239453,5.43940234 L6.95632813,5.13333594 C6.79403516,4.971 6.57824609,4.881625 6.34866406,4.881625 C6.119125,4.881625 5.90333594,4.97104297 5.74095703,5.13333594 L5.74095703,5.13333594 L5.13333594,5.741 C4.79822266,6.07607031 4.79822266,6.62125781 5.13333594,6.95637109 L5.13333594,6.95637109 L5.43931641,7.26235156 C6.01367969,7.83675781 6.18177344,8.69664844 5.86758594,9.45307031 L5.86758594,9.45307031 C5.55000391,10.222125 4.82327344,10.7109375 4.01094922,10.7109375 L4.01094922,10.7109375 L3.578125,10.7109375 C3.10426563,10.7109375 2.71875,11.0964531 2.71875,11.5703125 L2.71875,11.5703125 L2.71875,12.4296875 C2.71875,12.9035469 3.10426563,13.2890625 3.578125,13.2890625 L3.578125,13.2890625 L4.01094922,13.2890625 C4.82323047,13.2890625 5.54996094,13.777875 5.86242969,14.5344258 L5.86242969,14.5344258 L5.86801563,14.547918 C6.18164453,15.304125 6.01346484,16.163543 5.43935938,16.7376484 L5.43935938,16.7376484 L5.13333594,17.0436719 C4.971,17.2059648 4.881625,17.4217969 4.881625,17.6513359 C4.881625,17.880875 4.971,18.0966641 5.13333594,18.259 L5.13333594,18.259 L5.741,18.8666641 C5.90329297,19.028957 6.119125,19.118375 6.34866406,19.118375 C6.57824609,19.118375 6.79399219,19.029 6.95632812,18.866707 L6.95632812,18.866707 L7.26235156,18.5606406 C7.64455859,18.1784766 8.15330859,17.9761367 8.67370312,17.9761367 C8.93538281,17.9761367 9.19994141,18.0272266 9.45302734,18.1323711 L9.45302734,18.1323711 L9.46462891,18.1371836 C10.222082,18.4499531 10.7109375,19.1766836 10.7109375,19.9890078 L10.7109375,19.9890078 L10.7109375,20.421875 C10.7109375,20.8957344 11.0964531,21.28125 11.5703125,21.28125 L11.5703125,21.28125 L12.4296875,21.28125 C12.9035469,21.28125 13.2890625,20.8957344 13.2890625,20.421875 L13.2890625,20.421875 L13.2890625,19.9890078 C13.2890625,19.1766836 13.777918,18.4499531 14.5344688,18.1375703 L14.5344688,18.1375703 L14.5465859,18.132543 C15.3032656,17.8182695 16.1631992,17.9863203 16.7376055,18.5605977 L16.7376055,18.5605977 L17.0436719,18.8666641 C17.2059648,19.029 17.4217539,19.118375 17.6513359,19.118375 C17.880875,19.118375 18.0966641,19.028957 18.259043,18.8666641 L18.259043,18.8666641 L18.8666641,18.259 C19.029,18.0966641 19.118375,17.880875 19.118375,17.6513359 C19.118375,17.4217969 19.029,17.2059648 18.866707,17.0436719 L18.866707,17.0436719 L18.5606406,16.7376484 C17.9865781,16.163543 17.8183984,15.304125 18.1319844,14.547918 L18.1319844,14.547918 L18.1375703,14.5344258 C18.4499961,13.777875 19.1767266,13.2890625 19.9890508,13.2890625 L19.9890508,13.2890625 L20.421875,13.2890625 C20.8957344,13.2890625 21.28125,12.9035469 21.28125,12.4296875 L21.28125,12.4296875 L21.28125,11.5703125 C21.28125,11.0964531 20.8957344,10.7109375 20.421875,10.7109375 L20.421875,10.7109375 L19.9890508,10.7109375 C19.1767695,10.7109375 18.4500391,10.222125 18.1375703,9.46557422 L18.1375703,9.46557422 L18.0749364,9.29792891 C17.8424445,8.58322774 18.0246083,7.79846406 18.5606406,7.26235156 L18.5606406,7.26235156 L18.866707,6.95628516 C19.2017773,6.62121484 19.2017773,6.07602734 18.8666641,5.74095703 L18.8666641,5.74095703 L18.259,5.13329297 C18.096707,4.971 17.880875,4.88158203 17.6513359,4.88158203 C17.4217539,4.88158203 17.2060078,4.97095703 17.0436719,5.13325 L17.0436719,5.13325 L16.7376484,5.43931641 C16.1631992,6.01363672 15.3032656,6.1816875 14.5469727,5.86758594 L14.5469727,5.86758594 L14.5353711,5.86277344 C13.777918,5.55004687 13.2890625,4.82331641 13.2890625,4.01099219 L13.2890625,4.01099219 L13.2890625,3.578125 C13.2890625,3.10426563 12.9035469,2.71875 12.4296875,2.71875 L12.4296875,2.71875 Z M12,7.015625 C14.7484102,7.015625 16.984375,9.25163281 16.984375,12 C16.984375,12.4762656 16.9171289,12.9478047 16.7844844,13.4013828 C16.6511953,13.8569375 16.1740273,14.1182305 15.7183867,13.9849844 C15.262832,13.8517383 15.0015391,13.3744844 15.1347852,12.9189297 C15.221625,12.6221445 15.265625,12.3129414 15.265625,12 C15.265625,10.1993086 13.8006484,8.734375 12,8.734375 C10.1993516,8.734375 8.734375,10.1993086 8.734375,12 C8.734375,13.8006914 10.1993516,15.265625 12,15.265625 C12.3371758,15.265625 12.6691523,15.2146641 12.9867773,15.1141172 C13.4391953,14.9709023 13.92225,15.221625 14.0654219,15.6741289 C14.2086367,16.1266328 13.957957,16.6095586 13.5054531,16.7527734 C13.0198633,16.9064727 12.5133477,16.984375 12,16.984375 C9.25158984,16.984375 7.015625,14.7483672 7.015625,12 C7.015625,9.25163281 9.25158984,7.015625 12,7.015625 Z" id="Combined-Shape" fill="#3397C5"></path>
    </g>
</svg>